<svg xmlns="http://www.w3.org/2000/svg" viewBox="0 0 920 620" font-family="Inter, system-ui, -apple-system, sans-serif" font-size="13">
  <defs>
    <marker id="arrow" markerWidth="8" markerHeight="6" refX="8" refY="3" orient="auto">
      <path d="M0,0 L8,3 L0,6" fill="#94a3b8"/>
    </marker>
    <marker id="arrow-blue" markerWidth="8" markerHeight="6" refX="8" refY="3" orient="auto">
      <path d="M0,0 L8,3 L0,6" fill="#60a5fa"/>
    </marker>
    <marker id="arrow-left" markerWidth="8" markerHeight="6" refX="0" refY="3" orient="auto">
      <path d="M8,0 L0,3 L8,6" fill="#94a3b8"/>
    </marker>
  </defs>

  <!-- Background -->
  <rect width="920" height="620" rx="12" fill="#0f172a"/>

  <!-- ethrex L2 Sequencer box -->
  <rect x="30" y="20" width="560" height="440" rx="8" fill="none" stroke="#334155" stroke-width="1.5"/>
  <text x="50" y="46" fill="#e2e8f0" font-size="15" font-weight="600">ethrex L2 Sequencer</text>

  <!-- User -> RPC -> Aeges -> Mempool -->
  <text x="30" y="86" fill="#cbd5e1" font-size="12">User</text>
  <line x1="58" y1="82" x2="88" y2="82" stroke="#94a3b8" stroke-width="1" marker-end="url(#arrow)"/>
  <text x="92" y="86" fill="#cbd5e1" font-size="12">tx</text>
  <line x1="106" y1="82" x2="126" y2="82" stroke="#94a3b8" stroke-width="1" marker-end="url(#arrow)"/>
  <rect x="130" y="70" width="50" height="24" rx="4" fill="#1e293b" stroke="#475569" stroke-width="1"/>
  <text x="142" y="86" fill="#e2e8f0" font-size="12">RPC</text>
  <line x1="184" y1="82" x2="214" y2="82" stroke="#94a3b8" stroke-width="1" marker-end="url(#arrow)"/>
  <rect x="218" y="70" width="100" height="24" rx="4" fill="#1e293b" stroke="#475569" stroke-width="1"/>
  <text x="232" y="86" fill="#fbbf24" font-size="12">Aeges check</text>
  <line x1="322" y1="82" x2="362" y2="82" stroke="#94a3b8" stroke-width="1" marker-end="url(#arrow)"/>
  <rect x="366" y="70" width="80" height="24" rx="4" fill="#1e293b" stroke="#475569" stroke-width="1"/>
  <text x="380" y="86" fill="#e2e8f0" font-size="12">Mempool</text>

  <!-- Arrow down from Mempool -->
  <line x1="406" y1="94" x2="406" y2="120" stroke="#94a3b8" stroke-width="1" marker-end="url(#arrow)"/>

  <!-- Block Producer box -->
  <rect x="60" y="126" width="500" height="186" rx="6" fill="#1e293b" stroke="#334155" stroke-width="1"/>
  <text x="80" y="150" fill="#e2e8f0" font-size="13" font-weight="600">Block Producer: fill_transactions()</text>

  <!-- For each tx section -->
  <text x="100" y="178" fill="#94a3b8" font-size="12">For each tx:</text>

  <!-- Send Transaction arrow -->
  <text x="116" y="200" fill="#34d399" font-size="12">Send Transaction</text>
  <line x1="244" y1="196" x2="610" y2="196" stroke="#34d399" stroke-width="1.5" stroke-dasharray="6,3" marker-end="url(#arrow-blue)"/>

  <!-- Await verdict arrow -->
  <text x="116" y="222" fill="#f87171" font-size="12">Await verdict</text>
  <line x1="610" y1="218" x2="244" y2="218" stroke="#f87171" stroke-width="1.5" stroke-dasharray="6,3" marker-end="url(#arrow-left)"/>

  <!-- ASSERTION_FAILED -->
  <text x="116" y="244" fill="#fbbf24" font-size="12">ASSERTION_FAILED?</text>
  <text x="268" y="244" fill="#f87171" font-size="12">Skip tx</text>

  <!-- Otherwise include -->
  <text x="116" y="266" fill="#94a3b8" font-size="12">Otherwise:</text>
  <text x="196" y="266" fill="#34d399" font-size="12">include tx</text>

  <!-- On block sealed -->
  <text x="80" y="298" fill="#e2e8f0" font-size="12" font-weight="500">On block sealed:</text>
  <text x="100" y="318" fill="#94a3b8" font-size="12">Send CommitHead</text>
  <line x1="230" y1="314" x2="610" y2="314" stroke="#60a5fa" stroke-width="1" stroke-dasharray="4,3" marker-end="url(#arrow-blue)"/>

  <!-- WebSocket server -->
  <rect x="60" y="340" width="260" height="50" rx="6" fill="#1e293b" stroke="#334155" stroke-width="1"/>
  <text x="80" y="362" fill="#e2e8f0" font-size="12" font-weight="500">WebSocket server (:1730)</text>
  <text x="96" y="380" fill="#a78bfa" font-size="11">eth_subscribe("newHeads")</text>
  <line x1="610" y1="365" x2="324" y2="365" stroke="#a78bfa" stroke-width="1" stroke-dasharray="4,3" marker-end="url(#arrow-left)"/>

  <!-- debug_traceBlockByNumber -->
  <rect x="60" y="400" width="260" height="50" rx="6" fill="#1e293b" stroke="#334155" stroke-width="1"/>
  <text x="80" y="422" fill="#e2e8f0" font-size="12" font-weight="500">debug_traceBlockByNumber</text>
  <text x="96" y="440" fill="#a78bfa" font-size="11">prestateTracer (diff mode)</text>
  <line x1="610" y1="425" x2="324" y2="425" stroke="#a78bfa" stroke-width="1" stroke-dasharray="4,3" marker-end="url(#arrow-left)"/>

  <!-- Credible Layer Sidecar box -->
  <rect x="620" y="140" width="270" height="200" rx="8" fill="#172554" stroke="#1d4ed8" stroke-width="1.5"/>
  <text x="648" y="172" fill="#93c5fd" font-size="14" font-weight="600">Credible Layer</text>
  <text x="648" y="192" fill="#93c5fd" font-size="14" font-weight="600">Sidecar</text>
  <text x="648" y="214" fill="#60a5fa" font-size="12">(Assertion Enforcer)</text>

  <!-- Sidecar details -->
  <line x1="648" y1="228" x2="862" y2="228" stroke="#1e3a5f" stroke-width="1"/>
  <text x="648" y="252" fill="#94a3b8" font-size="12">Runs PhEVM to</text>
  <text x="648" y="270" fill="#94a3b8" font-size="12">evaluate assertions</text>
  <line x1="648" y1="282" x2="862" y2="282" stroke="#1e3a5f" stroke-width="1"/>
  <text x="648" y="306" fill="#94a3b8" font-size="12">Tracks chain state</text>
  <text x="648" y="324" fill="#94a3b8" font-size="12">via WS + traces</text>

  <!-- Connector line from sequencer to on-chain -->
  <line x1="310" y1="460" x2="310" y2="490" stroke="#475569" stroke-width="1.5" marker-end="url(#arrow)"/>

  <!-- On-chain (L2) label -->
  <text x="268" y="510" fill="#94a3b8" font-size="12">On-chain (L2)</text>

  <!-- On-chain boxes -->
  <rect x="140" y="520" width="440" height="80" rx="8" fill="none" stroke="#334155" stroke-width="1.5"/>

  <!-- State Oracle -->
  <rect x="160" y="536" width="180" height="48" rx="6" fill="#1e293b" stroke="#475569" stroke-width="1"/>
  <text x="186" y="556" fill="#fbbf24" font-size="13" font-weight="500">State Oracle</text>
  <text x="178" y="574" fill="#94a3b8" font-size="11">(registry of assertions)</text>

  <!-- Assertion DA -->
  <rect x="370" y="536" width="180" height="48" rx="6" fill="#1e293b" stroke="#475569" stroke-width="1"/>
  <text x="400" y="556" fill="#fbbf24" font-size="13" font-weight="500">Assertion DA</text>
  <text x="394" y="574" fill="#94a3b8" font-size="11">(bytecode storage)</text>

  <!-- gRPC label -->
  <rect x="614" y="122" width="52" height="18" rx="3" fill="#1e3a5f"/>
  <text x="622" y="135" fill="#60a5fa" font-size="10" font-weight="600">gRPC</text>
</svg>
